<mxfile host="Electron" agent="Mozilla/5.0 (X11; Linux x86_64) AppleWebKit/537.36 (KHTML, like Gecko) draw.io/24.7.17 Chrome/128.0.6613.36 Electron/32.0.1 Safari/537.36" version="24.7.17">
  <diagram id="C5RBs43oDa-KdzZeNtuy" name="Page-1">
    <mxGraphModel dx="2607" dy="1525" grid="1" gridSize="10" guides="1" tooltips="1" connect="1" arrows="1" fold="1" page="1" pageScale="1" pageWidth="827" pageHeight="1169" math="0" shadow="0">
      <root>
        <mxCell id="WIyWlLk6GJQsqaUBKTNV-0" />
        <mxCell id="WIyWlLk6GJQsqaUBKTNV-1" parent="WIyWlLk6GJQsqaUBKTNV-0" />
        <mxCell id="0mtI2GTyc8vv8E3f_8wC-0" value="Start" style="strokeWidth=2;html=1;shape=mxgraph.flowchart.terminator;whiteSpace=wrap;" parent="WIyWlLk6GJQsqaUBKTNV-1" vertex="1">
          <mxGeometry x="80" y="120" width="100" height="40" as="geometry" />
        </mxCell>
        <mxCell id="0mtI2GTyc8vv8E3f_8wC-4" style="edgeStyle=orthogonalEdgeStyle;rounded=0;orthogonalLoop=1;jettySize=auto;html=1;entryX=0.5;entryY=0;entryDx=0;entryDy=0;strokeWidth=2;" parent="WIyWlLk6GJQsqaUBKTNV-1" source="0mtI2GTyc8vv8E3f_8wC-1" target="0mtI2GTyc8vv8E3f_8wC-3" edge="1">
          <mxGeometry relative="1" as="geometry" />
        </mxCell>
        <mxCell id="0mtI2GTyc8vv8E3f_8wC-1" value="Display&amp;nbsp;&lt;div&gt;main menu&lt;/div&gt;" style="strokeWidth=2;html=1;shape=mxgraph.flowchart.display;whiteSpace=wrap;" parent="WIyWlLk6GJQsqaUBKTNV-1" vertex="1">
          <mxGeometry x="80" y="190" width="100" height="60" as="geometry" />
        </mxCell>
        <mxCell id="0mtI2GTyc8vv8E3f_8wC-2" style="edgeStyle=orthogonalEdgeStyle;rounded=0;orthogonalLoop=1;jettySize=auto;html=1;entryX=0.5;entryY=0;entryDx=0;entryDy=0;entryPerimeter=0;strokeWidth=2;" parent="WIyWlLk6GJQsqaUBKTNV-1" source="0mtI2GTyc8vv8E3f_8wC-0" target="0mtI2GTyc8vv8E3f_8wC-1" edge="1">
          <mxGeometry relative="1" as="geometry" />
        </mxCell>
        <mxCell id="zNB3iAEUIba5qyp_989d-56" value="yes" style="edgeStyle=orthogonalEdgeStyle;rounded=0;orthogonalLoop=1;jettySize=auto;html=1;strokeWidth=2;" edge="1" parent="WIyWlLk6GJQsqaUBKTNV-1" source="0mtI2GTyc8vv8E3f_8wC-3" target="zNB3iAEUIba5qyp_989d-11">
          <mxGeometry x="-0.2" relative="1" as="geometry">
            <mxPoint as="offset" />
          </mxGeometry>
        </mxCell>
        <mxCell id="0mtI2GTyc8vv8E3f_8wC-3" value="Do you want to play ?" style="rhombus;whiteSpace=wrap;html=1;strokeWidth=2;" parent="WIyWlLk6GJQsqaUBKTNV-1" vertex="1">
          <mxGeometry x="50" y="277.5" width="160" height="70" as="geometry" />
        </mxCell>
        <mxCell id="0mtI2GTyc8vv8E3f_8wC-18" style="edgeStyle=orthogonalEdgeStyle;rounded=0;orthogonalLoop=1;jettySize=auto;html=1;strokeWidth=2;" parent="WIyWlLk6GJQsqaUBKTNV-1" source="0mtI2GTyc8vv8E3f_8wC-15" target="0mtI2GTyc8vv8E3f_8wC-16" edge="1">
          <mxGeometry relative="1" as="geometry" />
        </mxCell>
        <mxCell id="0mtI2GTyc8vv8E3f_8wC-15" value="pick a die" style="rounded=1;whiteSpace=wrap;html=1;strokeWidth=2;" parent="WIyWlLk6GJQsqaUBKTNV-1" vertex="1">
          <mxGeometry x="470" y="404.5" width="120" height="40" as="geometry" />
        </mxCell>
        <mxCell id="0mtI2GTyc8vv8E3f_8wC-20" style="edgeStyle=orthogonalEdgeStyle;rounded=0;orthogonalLoop=1;jettySize=auto;html=1;strokeWidth=2;" parent="WIyWlLk6GJQsqaUBKTNV-1" source="0mtI2GTyc8vv8E3f_8wC-16" target="0mtI2GTyc8vv8E3f_8wC-19" edge="1">
          <mxGeometry relative="1" as="geometry" />
        </mxCell>
        <mxCell id="0mtI2GTyc8vv8E3f_8wC-16" value="store the picked die" style="rounded=1;whiteSpace=wrap;html=1;strokeWidth=2;" parent="WIyWlLk6GJQsqaUBKTNV-1" vertex="1">
          <mxGeometry x="660" y="404.5" width="120" height="40" as="geometry" />
        </mxCell>
        <mxCell id="zNB3iAEUIba5qyp_989d-14" style="edgeStyle=orthogonalEdgeStyle;rounded=0;orthogonalLoop=1;jettySize=auto;html=1;strokeWidth=2;" edge="1" parent="WIyWlLk6GJQsqaUBKTNV-1" source="0mtI2GTyc8vv8E3f_8wC-19" target="0mtI2GTyc8vv8E3f_8wC-24">
          <mxGeometry relative="1" as="geometry" />
        </mxCell>
        <mxCell id="0mtI2GTyc8vv8E3f_8wC-19" value="Remove the picked die from the dice bag" style="rounded=1;whiteSpace=wrap;html=1;strokeWidth=2;" parent="WIyWlLk6GJQsqaUBKTNV-1" vertex="1">
          <mxGeometry x="660" y="510" width="120" height="40" as="geometry" />
        </mxCell>
        <mxCell id="zNB3iAEUIba5qyp_989d-22" value="no" style="edgeStyle=orthogonalEdgeStyle;rounded=0;orthogonalLoop=1;jettySize=auto;html=1;entryX=0;entryY=0.5;entryDx=0;entryDy=0;strokeWidth=2;" edge="1" parent="WIyWlLk6GJQsqaUBKTNV-1" source="0mtI2GTyc8vv8E3f_8wC-24" target="zNB3iAEUIba5qyp_989d-2">
          <mxGeometry relative="1" as="geometry">
            <Array as="points">
              <mxPoint x="420" y="530" />
              <mxPoint x="420" y="263" />
            </Array>
          </mxGeometry>
        </mxCell>
        <mxCell id="zNB3iAEUIba5qyp_989d-28" value="yes" style="edgeStyle=orthogonalEdgeStyle;rounded=0;orthogonalLoop=1;jettySize=auto;html=1;strokeWidth=2;" edge="1" parent="WIyWlLk6GJQsqaUBKTNV-1" source="0mtI2GTyc8vv8E3f_8wC-24" target="zNB3iAEUIba5qyp_989d-27">
          <mxGeometry relative="1" as="geometry" />
        </mxCell>
        <mxCell id="0mtI2GTyc8vv8E3f_8wC-24" value="Are there 3 dice&lt;div&gt;&amp;nbsp;in the draw?&lt;br&gt;&lt;/div&gt;" style="rhombus;whiteSpace=wrap;html=1;strokeWidth=2;" parent="WIyWlLk6GJQsqaUBKTNV-1" vertex="1">
          <mxGeometry x="450" y="490" width="160" height="80" as="geometry" />
        </mxCell>
        <mxCell id="0mtI2GTyc8vv8E3f_8wC-47" style="edgeStyle=orthogonalEdgeStyle;rounded=0;orthogonalLoop=1;jettySize=auto;html=1;entryX=0.5;entryY=0;entryDx=0;entryDy=0;strokeWidth=2;" parent="WIyWlLk6GJQsqaUBKTNV-1" source="0mtI2GTyc8vv8E3f_8wC-44" target="0mtI2GTyc8vv8E3f_8wC-46" edge="1">
          <mxGeometry relative="1" as="geometry" />
        </mxCell>
        <mxCell id="0mtI2GTyc8vv8E3f_8wC-44" value="Exiting&lt;div&gt;message&lt;/div&gt;" style="strokeWidth=2;html=1;shape=mxgraph.flowchart.display;whiteSpace=wrap;" parent="WIyWlLk6GJQsqaUBKTNV-1" vertex="1">
          <mxGeometry x="80" y="440" width="100" height="60" as="geometry" />
        </mxCell>
        <mxCell id="0mtI2GTyc8vv8E3f_8wC-49" style="edgeStyle=orthogonalEdgeStyle;rounded=0;orthogonalLoop=1;jettySize=auto;html=1;strokeWidth=2;" parent="WIyWlLk6GJQsqaUBKTNV-1" source="0mtI2GTyc8vv8E3f_8wC-46" target="0mtI2GTyc8vv8E3f_8wC-48" edge="1">
          <mxGeometry relative="1" as="geometry" />
        </mxCell>
        <mxCell id="0mtI2GTyc8vv8E3f_8wC-46" value="exit(0)" style="rounded=1;whiteSpace=wrap;html=1;strokeWidth=2;" parent="WIyWlLk6GJQsqaUBKTNV-1" vertex="1">
          <mxGeometry x="90" y="530" width="80" height="40" as="geometry" />
        </mxCell>
        <mxCell id="0mtI2GTyc8vv8E3f_8wC-48" value="End" style="strokeWidth=2;html=1;shape=mxgraph.flowchart.terminator;whiteSpace=wrap;" parent="WIyWlLk6GJQsqaUBKTNV-1" vertex="1">
          <mxGeometry x="80" y="600" width="100" height="40" as="geometry" />
        </mxCell>
        <mxCell id="zNB3iAEUIba5qyp_989d-4" style="edgeStyle=orthogonalEdgeStyle;rounded=0;orthogonalLoop=1;jettySize=auto;html=1;strokeWidth=2;" edge="1" parent="WIyWlLk6GJQsqaUBKTNV-1" source="zNB3iAEUIba5qyp_989d-0" target="zNB3iAEUIba5qyp_989d-2">
          <mxGeometry relative="1" as="geometry" />
        </mxCell>
        <mxCell id="zNB3iAEUIba5qyp_989d-0" value="add kept dice in draw" style="rounded=1;whiteSpace=wrap;html=1;strokeWidth=2;" vertex="1" parent="WIyWlLk6GJQsqaUBKTNV-1">
          <mxGeometry x="470" y="160" width="120" height="40" as="geometry" />
        </mxCell>
        <mxCell id="zNB3iAEUIba5qyp_989d-5" value="yes" style="edgeStyle=orthogonalEdgeStyle;rounded=0;orthogonalLoop=1;jettySize=auto;html=1;entryX=0;entryY=0.5;entryDx=0;entryDy=0;strokeWidth=2;" edge="1" parent="WIyWlLk6GJQsqaUBKTNV-1" source="zNB3iAEUIba5qyp_989d-2" target="zNB3iAEUIba5qyp_989d-3">
          <mxGeometry relative="1" as="geometry" />
        </mxCell>
        <mxCell id="zNB3iAEUIba5qyp_989d-7" value="no" style="edgeStyle=orthogonalEdgeStyle;rounded=0;orthogonalLoop=1;jettySize=auto;html=1;entryX=0.5;entryY=0;entryDx=0;entryDy=0;strokeWidth=2;" edge="1" parent="WIyWlLk6GJQsqaUBKTNV-1" source="zNB3iAEUIba5qyp_989d-2" target="zNB3iAEUIba5qyp_989d-6">
          <mxGeometry x="-0.3333" relative="1" as="geometry">
            <Array as="points">
              <mxPoint x="530" y="322.5" />
              <mxPoint x="530" y="322.5" />
            </Array>
            <mxPoint as="offset" />
          </mxGeometry>
        </mxCell>
        <mxCell id="zNB3iAEUIba5qyp_989d-2" value="&lt;div&gt;Is the dice&lt;/div&gt;&lt;div&gt;bag is empty ?&lt;/div&gt;" style="rhombus;whiteSpace=wrap;html=1;strokeWidth=2;" vertex="1" parent="WIyWlLk6GJQsqaUBKTNV-1">
          <mxGeometry x="450" y="222.5" width="160" height="80" as="geometry" />
        </mxCell>
        <mxCell id="zNB3iAEUIba5qyp_989d-46" style="edgeStyle=orthogonalEdgeStyle;rounded=0;orthogonalLoop=1;jettySize=auto;html=1;entryX=1;entryY=0.5;entryDx=0;entryDy=0;strokeWidth=2;" edge="1" parent="WIyWlLk6GJQsqaUBKTNV-1" source="zNB3iAEUIba5qyp_989d-3" target="zNB3iAEUIba5qyp_989d-6">
          <mxGeometry relative="1" as="geometry">
            <Array as="points">
              <mxPoint x="720" y="362.5" />
            </Array>
          </mxGeometry>
        </mxCell>
        <mxCell id="zNB3iAEUIba5qyp_989d-3" value="(re)generate&lt;div&gt;dice bag&lt;/div&gt;" style="rounded=1;whiteSpace=wrap;html=1;strokeWidth=2;" vertex="1" parent="WIyWlLk6GJQsqaUBKTNV-1">
          <mxGeometry x="660" y="242.5" width="120" height="40" as="geometry" />
        </mxCell>
        <mxCell id="zNB3iAEUIba5qyp_989d-9" style="edgeStyle=orthogonalEdgeStyle;rounded=0;orthogonalLoop=1;jettySize=auto;html=1;entryX=0.5;entryY=0;entryDx=0;entryDy=0;strokeWidth=2;" edge="1" parent="WIyWlLk6GJQsqaUBKTNV-1" source="zNB3iAEUIba5qyp_989d-6" target="0mtI2GTyc8vv8E3f_8wC-15">
          <mxGeometry relative="1" as="geometry" />
        </mxCell>
        <mxCell id="zNB3iAEUIba5qyp_989d-6" value="shuffle dice bag" style="rounded=1;whiteSpace=wrap;html=1;strokeWidth=2;" vertex="1" parent="WIyWlLk6GJQsqaUBKTNV-1">
          <mxGeometry x="470" y="342.5" width="120" height="40" as="geometry" />
        </mxCell>
        <mxCell id="zNB3iAEUIba5qyp_989d-57" style="edgeStyle=orthogonalEdgeStyle;rounded=0;orthogonalLoop=1;jettySize=auto;html=1;entryX=0.5;entryY=0;entryDx=0;entryDy=0;strokeWidth=2;" edge="1" parent="WIyWlLk6GJQsqaUBKTNV-1" source="zNB3iAEUIba5qyp_989d-11" target="zNB3iAEUIba5qyp_989d-0">
          <mxGeometry relative="1" as="geometry">
            <Array as="points">
              <mxPoint x="320" y="140" />
              <mxPoint x="550" y="140" />
            </Array>
          </mxGeometry>
        </mxCell>
        <mxCell id="zNB3iAEUIba5qyp_989d-11" value="Initialisation&lt;br&gt;hp = 3&lt;div&gt;score = 0&lt;br&gt;keep_dice = []&lt;/div&gt;&lt;div&gt;dice_bag = []&lt;/div&gt;" style="shape=process;whiteSpace=wrap;html=1;backgroundOutline=1;strokeWidth=2;" vertex="1" parent="WIyWlLk6GJQsqaUBKTNV-1">
          <mxGeometry x="260" y="270" width="120" height="85" as="geometry" />
        </mxCell>
        <mxCell id="zNB3iAEUIba5qyp_989d-33" style="edgeStyle=orthogonalEdgeStyle;rounded=0;orthogonalLoop=1;jettySize=auto;html=1;entryX=1;entryY=0.5;entryDx=0;entryDy=0;strokeWidth=2;" edge="1" parent="WIyWlLk6GJQsqaUBKTNV-1" target="zNB3iAEUIba5qyp_989d-32">
          <mxGeometry relative="1" as="geometry">
            <mxPoint x="710" y="680" as="sourcePoint" />
            <Array as="points">
              <mxPoint x="730" y="680" />
              <mxPoint x="730" y="730" />
            </Array>
          </mxGeometry>
        </mxCell>
        <mxCell id="zNB3iAEUIba5qyp_989d-24" value="&lt;p data-pm-slice=&quot;0 0 []&quot;&gt;Display the&lt;br&gt;picked&amp;nbsp;&lt;span style=&quot;background-color: initial;&quot;&gt;dice&lt;br&gt;and the result&lt;br&gt;&lt;/span&gt;&lt;span style=&quot;background-color: initial;&quot;&gt;of each die.&lt;/span&gt;&lt;/p&gt;" style="strokeWidth=2;html=1;shape=mxgraph.flowchart.display;whiteSpace=wrap;" vertex="1" parent="WIyWlLk6GJQsqaUBKTNV-1">
          <mxGeometry x="660" y="600" width="130" height="80" as="geometry" />
        </mxCell>
        <mxCell id="zNB3iAEUIba5qyp_989d-29" style="edgeStyle=orthogonalEdgeStyle;rounded=0;orthogonalLoop=1;jettySize=auto;html=1;strokeWidth=2;" edge="1" parent="WIyWlLk6GJQsqaUBKTNV-1" source="zNB3iAEUIba5qyp_989d-27" target="zNB3iAEUIba5qyp_989d-24">
          <mxGeometry relative="1" as="geometry" />
        </mxCell>
        <mxCell id="zNB3iAEUIba5qyp_989d-27" value="Shuffle each dice" style="rounded=1;whiteSpace=wrap;html=1;strokeWidth=2;" vertex="1" parent="WIyWlLk6GJQsqaUBKTNV-1">
          <mxGeometry x="470" y="620" width="120" height="40" as="geometry" />
        </mxCell>
        <mxCell id="zNB3iAEUIba5qyp_989d-35" value="yes" style="edgeStyle=orthogonalEdgeStyle;rounded=0;orthogonalLoop=1;jettySize=auto;html=1;entryX=0;entryY=0.5;entryDx=0;entryDy=0;entryPerimeter=0;strokeWidth=2;" edge="1" parent="WIyWlLk6GJQsqaUBKTNV-1" source="zNB3iAEUIba5qyp_989d-31" target="zNB3iAEUIba5qyp_989d-36">
          <mxGeometry relative="1" as="geometry">
            <mxPoint x="390" y="1132.5" as="targetPoint" />
          </mxGeometry>
        </mxCell>
        <mxCell id="zNB3iAEUIba5qyp_989d-62" value="no" style="edgeStyle=orthogonalEdgeStyle;rounded=0;orthogonalLoop=1;jettySize=auto;html=1;entryX=0.5;entryY=0;entryDx=0;entryDy=0;strokeWidth=2;" edge="1" parent="WIyWlLk6GJQsqaUBKTNV-1" source="zNB3iAEUIba5qyp_989d-31" target="zNB3iAEUIba5qyp_989d-39">
          <mxGeometry relative="1" as="geometry" />
        </mxCell>
        <mxCell id="zNB3iAEUIba5qyp_989d-31" value="Is HP = 0 ?&amp;nbsp;&lt;div&gt;aka the player&lt;/div&gt;&lt;div&gt;is dead.&lt;br&gt;&lt;/div&gt;" style="rhombus;whiteSpace=wrap;html=1;strokeWidth=2;" vertex="1" parent="WIyWlLk6GJQsqaUBKTNV-1">
          <mxGeometry x="430" y="790" width="160" height="80" as="geometry" />
        </mxCell>
        <mxCell id="zNB3iAEUIba5qyp_989d-34" style="edgeStyle=orthogonalEdgeStyle;rounded=0;orthogonalLoop=1;jettySize=auto;html=1;strokeWidth=2;" edge="1" parent="WIyWlLk6GJQsqaUBKTNV-1" source="zNB3iAEUIba5qyp_989d-32" target="zNB3iAEUIba5qyp_989d-31">
          <mxGeometry relative="1" as="geometry" />
        </mxCell>
        <mxCell id="zNB3iAEUIba5qyp_989d-32" value="HP calculation" style="rounded=1;whiteSpace=wrap;html=1;strokeWidth=2;" vertex="1" parent="WIyWlLk6GJQsqaUBKTNV-1">
          <mxGeometry x="450" y="710" width="120" height="40" as="geometry" />
        </mxCell>
        <mxCell id="zNB3iAEUIba5qyp_989d-63" style="edgeStyle=orthogonalEdgeStyle;rounded=0;orthogonalLoop=1;jettySize=auto;html=1;entryX=0;entryY=0.5;entryDx=0;entryDy=0;strokeWidth=2;" edge="1" parent="WIyWlLk6GJQsqaUBKTNV-1" source="zNB3iAEUIba5qyp_989d-36" target="zNB3iAEUIba5qyp_989d-60">
          <mxGeometry relative="1" as="geometry" />
        </mxCell>
        <mxCell id="zNB3iAEUIba5qyp_989d-36" value="Display score" style="strokeWidth=2;html=1;shape=mxgraph.flowchart.display;whiteSpace=wrap;" vertex="1" parent="WIyWlLk6GJQsqaUBKTNV-1">
          <mxGeometry x="640" y="800" width="100" height="60" as="geometry" />
        </mxCell>
        <mxCell id="zNB3iAEUIba5qyp_989d-44" style="edgeStyle=orthogonalEdgeStyle;rounded=0;orthogonalLoop=1;jettySize=auto;html=1;strokeWidth=2;" edge="1" parent="WIyWlLk6GJQsqaUBKTNV-1" source="zNB3iAEUIba5qyp_989d-39" target="zNB3iAEUIba5qyp_989d-43">
          <mxGeometry relative="1" as="geometry" />
        </mxCell>
        <mxCell id="zNB3iAEUIba5qyp_989d-39" value="Update score" style="rounded=1;whiteSpace=wrap;html=1;strokeWidth=2;" vertex="1" parent="WIyWlLk6GJQsqaUBKTNV-1">
          <mxGeometry x="450" y="910" width="120" height="40" as="geometry" />
        </mxCell>
        <mxCell id="zNB3iAEUIba5qyp_989d-47" style="edgeStyle=orthogonalEdgeStyle;rounded=0;orthogonalLoop=1;jettySize=auto;html=1;entryX=0.5;entryY=0;entryDx=0;entryDy=0;strokeWidth=2;" edge="1" parent="WIyWlLk6GJQsqaUBKTNV-1" source="zNB3iAEUIba5qyp_989d-43" target="zNB3iAEUIba5qyp_989d-45">
          <mxGeometry relative="1" as="geometry" />
        </mxCell>
        <mxCell id="zNB3iAEUIba5qyp_989d-43" value="Display&lt;br&gt;updated&lt;br&gt;score" style="strokeWidth=2;html=1;shape=mxgraph.flowchart.display;whiteSpace=wrap;" vertex="1" parent="WIyWlLk6GJQsqaUBKTNV-1">
          <mxGeometry x="460" y="970" width="100" height="60" as="geometry" />
        </mxCell>
        <mxCell id="zNB3iAEUIba5qyp_989d-49" value="yes" style="edgeStyle=orthogonalEdgeStyle;rounded=0;orthogonalLoop=1;jettySize=auto;html=1;entryX=1;entryY=0.5;entryDx=0;entryDy=0;strokeWidth=2;" edge="1" parent="WIyWlLk6GJQsqaUBKTNV-1" source="zNB3iAEUIba5qyp_989d-45" target="zNB3iAEUIba5qyp_989d-50">
          <mxGeometry relative="1" as="geometry">
            <mxPoint x="410" y="1422.5" as="targetPoint" />
          </mxGeometry>
        </mxCell>
        <mxCell id="zNB3iAEUIba5qyp_989d-45" value="Play again ?" style="rhombus;whiteSpace=wrap;html=1;strokeWidth=2;" vertex="1" parent="WIyWlLk6GJQsqaUBKTNV-1">
          <mxGeometry x="430" y="1070" width="160" height="80" as="geometry" />
        </mxCell>
        <mxCell id="zNB3iAEUIba5qyp_989d-48" value="no" style="edgeStyle=orthogonalEdgeStyle;rounded=0;orthogonalLoop=1;jettySize=auto;html=1;entryX=0.5;entryY=1;entryDx=0;entryDy=0;entryPerimeter=0;strokeWidth=2;" edge="1" parent="WIyWlLk6GJQsqaUBKTNV-1" source="zNB3iAEUIba5qyp_989d-45" target="zNB3iAEUIba5qyp_989d-36">
          <mxGeometry relative="1" as="geometry" />
        </mxCell>
        <mxCell id="zNB3iAEUIba5qyp_989d-54" style="edgeStyle=orthogonalEdgeStyle;rounded=0;orthogonalLoop=1;jettySize=auto;html=1;entryX=0;entryY=0.5;entryDx=0;entryDy=0;exitX=0.5;exitY=0;exitDx=0;exitDy=0;strokeWidth=2;" edge="1" parent="WIyWlLk6GJQsqaUBKTNV-1" source="zNB3iAEUIba5qyp_989d-50" target="zNB3iAEUIba5qyp_989d-0">
          <mxGeometry relative="1" as="geometry">
            <Array as="points">
              <mxPoint x="320" y="1070" />
              <mxPoint x="400" y="1070" />
              <mxPoint x="400" y="180" />
            </Array>
          </mxGeometry>
        </mxCell>
        <mxCell id="zNB3iAEUIba5qyp_989d-50" value="Keep &#39;step&#39; dice" style="rounded=1;whiteSpace=wrap;html=1;strokeWidth=2;" vertex="1" parent="WIyWlLk6GJQsqaUBKTNV-1">
          <mxGeometry x="260" y="1090" width="120" height="40" as="geometry" />
        </mxCell>
        <mxCell id="zNB3iAEUIba5qyp_989d-53" value="FLOW CHART ZOMPYDICE&lt;div&gt;To better understand, don&#39;t hesitate to also read the official rules of original Zombiedice game.&lt;/div&gt;" style="rounded=0;whiteSpace=wrap;html=1;strokeWidth=2;glass=0;shadow=0;" vertex="1" parent="WIyWlLk6GJQsqaUBKTNV-1">
          <mxGeometry x="40" y="40" width="760" height="40" as="geometry" />
        </mxCell>
        <mxCell id="zNB3iAEUIba5qyp_989d-58" value="no" style="edgeStyle=orthogonalEdgeStyle;rounded=0;orthogonalLoop=1;jettySize=auto;html=1;entryX=0.5;entryY=0;entryDx=0;entryDy=0;entryPerimeter=0;strokeWidth=2;" edge="1" parent="WIyWlLk6GJQsqaUBKTNV-1" source="0mtI2GTyc8vv8E3f_8wC-3" target="0mtI2GTyc8vv8E3f_8wC-44">
          <mxGeometry relative="1" as="geometry" />
        </mxCell>
        <mxCell id="zNB3iAEUIba5qyp_989d-60" value="A" style="ellipse;whiteSpace=wrap;html=1;aspect=fixed;strokeWidth=2;" vertex="1" parent="WIyWlLk6GJQsqaUBKTNV-1">
          <mxGeometry x="760" y="810" width="40" height="40" as="geometry" />
        </mxCell>
        <mxCell id="zNB3iAEUIba5qyp_989d-64" value="A" style="ellipse;whiteSpace=wrap;html=1;aspect=fixed;strokeWidth=2;" vertex="1" parent="WIyWlLk6GJQsqaUBKTNV-1">
          <mxGeometry x="200" y="450" width="40" height="40" as="geometry" />
        </mxCell>
        <mxCell id="zNB3iAEUIba5qyp_989d-65" style="edgeStyle=orthogonalEdgeStyle;rounded=0;orthogonalLoop=1;jettySize=auto;html=1;entryX=1;entryY=0.5;entryDx=0;entryDy=0;entryPerimeter=0;strokeWidth=2;" edge="1" parent="WIyWlLk6GJQsqaUBKTNV-1" source="zNB3iAEUIba5qyp_989d-64" target="0mtI2GTyc8vv8E3f_8wC-44">
          <mxGeometry relative="1" as="geometry" />
        </mxCell>
      </root>
    </mxGraphModel>
  </diagram>
</mxfile>
